<svg xmlns:rdf="http://www.w3.org/1999/02/22-rdf-syntax-ns#" xmlns="http://www.w3.org/2000/svg" xml:space="preserve" height="160" width="544.35" version="1.1" xmlns:cc="http://creativecommons.org/ns#" xmlns:dc="http://purl.org/dc/elements/1.1/" viewBox="0 0 544.35001 159.99977"><defs><clipPath id="ag" clipPathUnits="userSpaceOnUse"><path d="m0 448h691.42v-448h-691.42v448z"/></clipPath><clipPath id="ak" clipPathUnits="userSpaceOnUse"><path d="m150.94 184.46h36.44v-25.73h-36.44v25.73z"/></clipPath><clipPath id="al" clipPathUnits="userSpaceOnUse"><path d="m127.94 159.73h23.58v-1h-23.58v1z"/></clipPath><clipPath id="am" clipPathUnits="userSpaceOnUse"><path d="m127.94 222.73h37.31v-64h-37.31v64z"/></clipPath><clipPath id="an" clipPathUnits="userSpaceOnUse"><path d="m187.38 183.96-10.92 18.89-2.68-4.63 13.6-14.26z"/></clipPath><clipPath id="ao" clipPathUnits="userSpaceOnUse"><path d="m-32768 32767h65535v-65535h-65535v65535z"/></clipPath><radialGradient id="ax" gradientUnits="userSpaceOnUse" cy="0" cx="0" gradientTransform="matrix(44.264,0,0,44.264,187.22,184.36)" r="1"><stop stop-opacity=".2" stop-color="#fff" offset="0"/><stop stop-opacity=".019989" stop-color="#fff" offset="1"/></radialGradient><mask id="ar" height="1" width="1" y="0" x="0" maskUnits="userSpaceOnUse"><g clip-path="url(#ao)"><path fill="url(#ax)" d="m-32768 32767h65535v-65535h-65535v65535z"/></g></mask><radialGradient id="as" gradientUnits="userSpaceOnUse" cy="0" cx="0" gradientTransform="matrix(44.264,0,0,44.264,187.22,184.36)" r="1"><stop stop-color="#bf360c" offset="0"/><stop stop-color="#bf360c" offset="1"/></radialGradient><clipPath id="z" clipPathUnits="userSpaceOnUse"><path d="m173.78 198.22 2.68 4.63-11.5 19.88-5.49-9.5 14.31-15.01z"/></clipPath><clipPath id="aa" clipPathUnits="userSpaceOnUse"><path d="m-32768 32767h65535v-65535h-65535v65535z"/></clipPath><radialGradient id="at" gradientUnits="userSpaceOnUse" cy="0" cx="0" gradientTransform="matrix(44.623,0,0,44.623,187.09,184.08)" r="1"><stop stop-opacity=".2" stop-color="#fff" offset="0"/><stop stop-opacity=".019989" stop-color="#fff" offset="1"/></radialGradient><mask id="ap" height="1" width="1" y="0" x="0" maskUnits="userSpaceOnUse"><g clip-path="url(#aa)"><path fill="url(#at)" d="m-32768 32767h65535v-65535h-65535v65535z"/></g></mask><radialGradient id="au" gradientUnits="userSpaceOnUse" cy="0" cx="0" gradientTransform="matrix(44.623,0,0,44.623,187.09,184.08)" r="1"><stop stop-color="#263238" offset="0"/><stop stop-color="#263238" offset="1"/></radialGradient><clipPath id="ab" clipPathUnits="userSpaceOnUse"><path d="m0 448h691.42v-448h-691.42v448z"/></clipPath><clipPath id="ac" clipPathUnits="userSpaceOnUse"><path d="m127.94 286.73h70.94v-102.77h-70.94v102.77z"/></clipPath><clipPath id="ad" clipPathUnits="userSpaceOnUse"><path d="m127.94 286.73h79.98v-64.5h-79.98v64.5z"/></clipPath><clipPath id="ae" clipPathUnits="userSpaceOnUse"><path d="m198.59 223.23h9.33v-19.38h-9.33v19.38z"/></clipPath><clipPath id="af" clipPathUnits="userSpaceOnUse"><path d="m127.94 286.73 37.02-64-37.02-64h44.85l33.54 58c2.15 3.71 2.15 8.29 0 12l-33.54 58h-44.85z"/></clipPath><clipPath id="ah" clipPathUnits="userSpaceOnUse"><path d="m-32768 32767h65535v-65535h-65535v65535z"/></clipPath><radialGradient id="av" gradientUnits="userSpaceOnUse" cy="0" cx="0" gradientTransform="matrix(134.35,0,0,134.35,126.94,285.73)" r="1"><stop stop-opacity=".099992" stop-color="#fff" offset="0"/><stop stop-opacity="0" stop-color="#fff" offset="1"/></radialGradient><mask id="aq" height="1" width="1" y="0" x="0" maskUnits="userSpaceOnUse"><g clip-path="url(#ah)"><path fill="url(#av)" d="m-32768 32767h65535v-65535h-65535v65535z"/></g></mask><radialGradient id="aw" gradientUnits="userSpaceOnUse" cy="0" cx="0" gradientTransform="matrix(134.35,0,0,134.35,126.94,285.73)" r="1"><stop stop-color="#fff" offset="0"/><stop stop-color="#fff" offset="1"/></radialGradient><clipPath id="ai" clipPathUnits="userSpaceOnUse"><path d="m0 448h691.42v-448h-691.42v448z"/></clipPath><clipPath id="aj" clipPathUnits="userSpaceOnUse"><path d="m255.4 278.15h308.02v-108.44h-308.02v108.44z"/></clipPath></defs><g transform="matrix(1.25 0 0 -1.25 -159.92 358.41)"><g transform="translate(187.09,184.46)"><path fill="#ffc107" d="m0 0-10.63 18.39-25.52-44.12h21.85l14.59 25.23-0.29 0.5z"/></g><g transform="translate(164.96,222.73)"><path fill="#0f9d58" d="m0 0 11.5-19.88-25.52-44.12h-23l37.02 64z"/></g><g clip-path="url(#ag)"><g opacity=".2" clip-path="url(#ak)"><g transform="translate(172.79,159.73)"><path fill="#bf360c" d="m0 0h-21.27l-0.58-1h21.85l14.59 25.23-0.29 0.5-14.3-24.73z"/></g></g><g opacity=".2" clip-path="url(#al)"><g transform="translate(128.52,159.73)"><path fill="#263238" d="m0 0-0.58-1h23l0.58 1h-23z"/></g></g><g opacity=".2" clip-path="url(#am)"><g transform="translate(127.94,158.73)"><path fill="#fff" d="m0 0h0.58l36.73 63.5-0.29 0.5-37.02-64z"/></g></g></g><g clip-path="url(#an)"><g mask="url(#ar)"><path fill="url(#as)" d="m187.38 183.96-10.92 18.89-2.68-4.63 13.6-14.26z"/></g></g><g clip-path="url(#z)"><g mask="url(#ap)"><path fill="url(#au)" d="m173.78 198.22 2.68 4.63-11.5 19.88-5.49-9.5 14.31-15.01z"/></g></g><g transform="translate(150.94,286.73)"><path fill="#4285f4" d="m0 0h-23l59.44-102.77 11.49 19.87 0.01 0.02-47.94 82.88z"/></g><g clip-path="url(#ab)"><g transform="translate(206.33,216.73)"><path fill="#db4437" d="m0 0c2.15 3.71 2.15 8.29 0 12l-33.54 58h-21.85l47.94-82.88 7.45 12.88z"/></g><g opacity=".2" clip-path="url(#ac)"><g transform="translate(198.88,203.85)"><path fill="#1a237e" d="m0 0-0.29 0.49-11.21-19.38-58.86 101.77h-0.58l59.44-102.77 11.49 19.87 0.01 0.02z"/></g></g><g opacity=".2" clip-path="url(#ad)"><g transform="translate(172.79,285.73)"><path fill="#fff" d="m0 0 33.54-58c0.99-1.71 1.5-3.6 1.58-5.5 0.09 2.24-0.42 4.5-1.58 6.5l-33.54 58h-44.85l0.58-1h44.27z"/></g></g><g opacity=".2" clip-path="url(#ae)"><g transform="translate(198.88,203.85)"><path fill="#3e2723" d="m0 0 7.45 12.88c1.16 2 1.67 4.26 1.58 6.5-0.08-1.9-0.59-3.79-1.58-5.5l-7.74-13.39 0.29-0.49z"/></g></g></g><g clip-path="url(#af)"><g mask="url(#aq)"><path fill="url(#aw)" d="m127.94 286.73 37.02-64-37.02-64h44.85l33.54 58c2.15 3.71 2.15 8.29 0 12l-33.54 58h-44.85z"/></g></g><g clip-path="url(#ai)"><g opacity=".53999" clip-path="url(#aj)"><g transform="translate(401.53,191.21)"><path d="m0 0c21.69 0 35.13 12.04 35.13 34.64 0 22.47-13.44 34.64-35.13 34.64h-16.07v-69.28h16.07zm-31.13 84.34h30.6c31.16 0 50.72-20.68 50.72-49.7 0-29.15-19.57-49.7-50.72-49.7h-30.6v99.4z"/></g><g transform="translate(357.83,230.36)"><path d="m0 0h-47.67v-14.76h33.61c-1.11-7.53-3.72-13.4-7.63-17.32-4.98-4.98-12.76-10.46-26.41-10.46-21.05 0-37.51 16.97-37.51 38.02s16.46 38.02 37.51 38.02c11.35 0 19.65-4.47 25.77-10.21l10.08 10.08c-8.55 8.17-19.9 14.42-35.85 14.42-28.83 0-53.07-23.47-53.07-52.31 0-28.83 24.24-52.31 53.07-52.31 15.56 0 27.3 5.1 36.49 14.67 9.44 9.44 12.38 22.71 12.38 33.43 0 3.32-0.26 6.18-0.77 8.73"/></g><g transform="translate(562.65,230.36)"><path d="m0 0h-47.67v-14.76h33.61c-1.11-7.53-3.72-13.4-7.63-17.32-4.98-4.98-12.76-10.46-26.41-10.46-21.05 0-37.51 16.97-37.51 38.02s16.46 38.02 37.51 38.02c11.35 0 19.65-4.47 25.77-10.21l10.08 10.08c-8.55 8.17-19.9 14.42-35.85 14.42-28.83 0-53.07-23.47-53.07-52.31 0-28.83 24.24-52.31 53.07-52.31 15.56 0 27.3 5.1 36.49 14.67 9.44 9.44 12.38 22.71 12.38 33.43 0 3.32-0.26 6.18-0.77 8.73"/></g></g></g></g></svg>
